<?xml version="1.0" standalone="no"?><!DOCTYPE svg PUBLIC "-//W3C//DTD SVG 1.1//EN" "http://www.w3.org/Graphics/SVG/1.1/DTD/svg11.dtd"><svg t="1734509739531" class="icon" viewBox="0 0 1194 1024" version="1.1" xmlns="http://www.w3.org/2000/svg" p-id="3517" xmlns:xlink="http://www.w3.org/1999/xlink" width="233.203125" height="200"><path d="M1194.664676 511.999147c0 282.794195-232.618279 511.999147-519.508468 511.999146a521.812464 521.812464 0 0 1-319.743467-108.543819l89.343851-93.86651a391.679347 391.679347 0 0 0 230.399616 74.410543c215.295641 0 389.631351-171.861047 389.631351-383.99936 0-212.05298-174.421043-383.99936-389.631351-383.99936-210.772982 0-382.292696 165.119725-389.119351 371.199381h181.418364l-233.727611 255.999573L0 499.199168h156.15974C162.986395 222.463629 392.703345 0 675.070875 0 961.961063 0 1194.664676 229.204951 1194.664676 511.999147z" fill="#2c2c2c" p-id="3518"></path></svg>