<?xml version="1.0" standalone="no"?><!DOCTYPE svg PUBLIC "-//W3C//DTD SVG 1.1//EN" "http://www.w3.org/Graphics/SVG/1.1/DTD/svg11.dtd"><svg t="1734509645093" class="icon" viewBox="0 0 1194 1024" version="1.1" xmlns="http://www.w3.org/2000/svg" p-id="1484" xmlns:xlink="http://www.w3.org/1999/xlink" width="233.203125" height="200"><path d="M0 511.999147c0 282.794195 232.618279 511.999147 519.508467 511.999146a521.812464 521.812464 0 0 0 319.743468-108.543819l-89.343852-93.86651a391.679347 391.679347 0 0 1-230.399616 74.410543c-215.295641 0-389.631351-171.861047-389.63135-383.99936 0-212.05298 174.421043-383.99936 389.63135-383.99936 210.772982 0 382.292696 165.119725 389.119352 371.199381H727.294788l233.72761 255.999573 233.727611-255.999573h-156.15974C1031.678281 222.463629 801.96133 0 519.593801 0 232.703612 0 0 229.204951 0 511.999147z" fill="#2c2c2c" p-id="1485"></path></svg>